<svg width="50" height="50" viewBox="0 0 50 50" fill="none" xmlns="http://www.w3.org/2000/svg">
<g clip-path="url(#clip0_6231_4550)">
<path d="M49.7139 9.17148L40.8271 0.286035C40.644 0.10293 40.3957 0 40.1367 0H11.1328C9.51738 0 8.20312 1.31426 8.20312 2.92969V4.79141C3.40576 6.67324 0 11.3491 0 16.8058C0 17.345 0.437305 17.7823 0.976562 17.7823H12.8995C13.4388 17.7823 13.8761 17.345 13.8761 16.8058V4.88281C13.8761 4.34355 13.4388 3.90625 12.8995 3.90625C11.9583 3.90625 11.0407 4.0085 10.1562 4.20088V2.92969C10.1562 2.39121 10.5943 1.95312 11.1328 1.95312H39.1602V7.91016C39.1602 9.52559 40.4744 10.8398 42.0898 10.8398H48.0469V47.0703C48.0469 47.6088 47.6088 48.0469 47.0703 48.0469H11.1328C10.5943 48.0469 10.1562 47.6088 10.1562 47.0703V38.7044C10.1562 38.1651 9.71895 37.7278 9.17969 37.7278C8.64043 37.7278 8.20312 38.1651 8.20312 38.7044V47.0703C8.20312 48.6857 9.51738 50 11.1328 50H47.0703C48.6857 50 50 48.6857 50 47.0703V9.86201C50 9.60303 49.8971 9.35459 49.7139 9.17148ZM11.9229 5.90264V15.8292H1.99629C2.46318 10.5706 6.66436 6.36953 11.9229 5.90264ZM42.0898 8.88672C41.5514 8.88672 41.1133 8.44863 41.1133 7.91016V3.33398L46.6668 8.88672H42.0898Z" fill="white"/>
<path d="M9.87002 34.4658C9.68848 34.2841 9.43652 34.1797 9.17969 34.1797C8.92285 34.1797 8.6709 34.2841 8.48926 34.4658C8.30762 34.6475 8.20312 34.8994 8.20312 35.1562C8.20312 35.4131 8.30752 35.665 8.48926 35.8466C8.6709 36.0283 8.92285 36.1328 9.17969 36.1328C9.43652 36.1328 9.68848 36.0283 9.87002 35.8466C10.0518 35.665 10.1562 35.4131 10.1562 35.1562C10.1562 34.8994 10.0518 34.6475 9.87002 34.4658Z" fill="white"/>
<path d="M16.3975 7.4043C15.8582 7.4043 15.4209 7.8416 15.4209 8.38086V19.3271H4.47461C3.93535 19.3271 3.49805 19.7645 3.49805 20.3037C3.49805 27.4165 9.28467 33.2032 16.3975 33.2032C23.5103 33.2032 29.297 27.4165 29.297 20.3037C29.297 13.1909 23.5103 7.4043 16.3975 7.4043ZM17.374 9.40068C19.6602 9.60361 21.7462 10.5128 23.4127 11.9075L17.374 17.9461V9.40068ZM16.3975 31.2501C10.6907 31.2501 5.98984 26.8605 5.49443 21.2803H16.3975C16.667 21.2803 16.9109 21.1711 17.0877 20.9945C17.0878 20.9944 17.0879 20.9944 17.0881 20.9942L24.794 13.2884C26.385 15.1895 27.3438 17.6367 27.3438 20.3037C27.3438 26.3396 22.4333 31.2501 16.3975 31.2501Z" fill="white"/>
<path d="M42.782 30.8208C41.1666 30.8208 39.8523 32.1351 39.8523 33.7505C39.8523 34.1554 39.935 34.5412 40.0841 34.8923L34.4578 40.5186C34.0712 40.3302 33.6372 40.2242 33.179 40.2242C32.7316 40.2242 32.3076 40.3254 31.928 40.5054L28.1919 36.7692C28.3214 36.4388 28.3933 36.0795 28.3933 35.7035C28.3933 34.0881 27.079 32.7738 25.4636 32.7738C23.8481 32.7738 22.5339 34.0881 22.5339 35.7035C22.5339 36.1412 22.6311 36.5564 22.8039 36.9298L19.2204 40.5133C18.8387 40.3307 18.4115 40.2282 17.9609 40.2282C16.3455 40.2282 15.0312 41.5425 15.0312 43.1579C15.0312 44.7733 16.3455 46.0876 17.9609 46.0876C19.5764 46.0876 20.8906 44.7733 20.8906 43.1579C20.8906 42.7051 20.7873 42.276 20.6031 41.8929L24.1666 38.3294C24.5579 38.5235 24.9981 38.6332 25.4638 38.6332C25.9896 38.6332 26.4831 38.4933 26.9102 38.2497L30.5409 41.8805C30.3542 42.2657 30.2493 42.6978 30.2493 43.1539C30.2493 44.7693 31.5636 46.0836 33.179 46.0836C34.7944 46.0836 36.1087 44.7693 36.1087 43.1539C36.1087 42.7088 36.0085 42.2867 35.8301 41.9086L41.4038 36.3349C41.8148 36.555 42.2841 36.6802 42.782 36.6802C44.3975 36.6802 45.7117 35.3659 45.7117 33.7505C45.7117 32.1351 44.3975 30.8208 42.782 30.8208ZM17.9608 44.1346C17.4224 44.1346 16.9843 43.6965 16.9843 43.158C16.9843 42.6195 17.4224 42.1814 17.9608 42.1814C18.223 42.1814 18.4608 42.2858 18.6364 42.4546C18.6403 42.4587 18.6438 42.4631 18.6478 42.4671C18.6524 42.4718 18.6575 42.4757 18.6623 42.4802C18.8322 42.656 18.9374 42.8948 18.9374 43.158C18.9374 43.6964 18.4993 44.1346 17.9608 44.1346ZM25.4636 36.6801C24.9251 36.6801 24.487 36.242 24.487 35.7035C24.487 35.165 24.9251 34.727 25.4636 34.727C26.0021 34.727 26.4401 35.165 26.4401 35.7035C26.4401 36.242 26.0021 36.6801 25.4636 36.6801ZM33.1788 44.1305C32.6403 44.1305 32.2022 43.6924 32.2022 43.1539C32.2022 42.6154 32.6403 42.1773 33.1788 42.1773C33.7173 42.1773 34.1554 42.6154 34.1554 43.1539C34.1554 43.6924 33.7173 44.1305 33.1788 44.1305ZM42.7818 34.727C42.2434 34.727 41.8053 34.2889 41.8053 33.7504C41.8053 33.2119 42.2435 32.7738 42.7818 32.7738C43.3203 32.7738 43.7584 33.2119 43.7584 33.7504C43.7584 34.2889 43.3203 34.727 42.7818 34.727Z" fill="white"/>
<path d="M37.9003 22.9492H32.7461C32.2068 22.9492 31.7695 23.3865 31.7695 23.9258C31.7695 24.465 32.2067 24.9023 32.7461 24.9023H37.9003C38.4395 24.9023 38.8769 24.465 38.8769 23.9258C38.8769 23.3865 38.4395 22.9492 37.9003 22.9492Z" fill="white"/>
<path d="M43.036 23.2354C42.8545 23.0537 42.6025 22.9492 42.3457 22.9492C42.0889 22.9492 41.8369 23.0536 41.6553 23.2354C41.4736 23.417 41.3691 23.6689 41.3691 23.9258C41.3691 24.1826 41.4735 24.4346 41.6553 24.6161C41.8369 24.7978 42.0879 24.9023 42.3457 24.9023C42.6025 24.9023 42.8545 24.7979 43.036 24.6161C43.2177 24.4346 43.3223 24.1826 43.3223 23.9258C43.3223 23.6689 43.2178 23.417 43.036 23.2354Z" fill="white"/>
<path d="M44.6752 13.5742H32.7461C32.2068 13.5742 31.7695 14.0115 31.7695 14.5508C31.7695 15.09 32.2067 15.5273 32.7461 15.5273H44.6752C45.2145 15.5273 45.6518 15.09 45.6518 14.5508C45.6518 14.0115 45.2145 13.5742 44.6752 13.5742Z" fill="white"/>
<path d="M44.6752 18.2617H32.7461C32.2068 18.2617 31.7695 18.699 31.7695 19.2383C31.7695 19.7775 32.2067 20.2148 32.7461 20.2148H44.6752C45.2145 20.2148 45.6518 19.7775 45.6518 19.2383C45.6518 18.699 45.2145 18.2617 44.6752 18.2617Z" fill="white"/>
</g>
<defs>
<clipPath id="clip0_6231_4550">
<rect width="50" height="50" fill="white"/>
</clipPath>
</defs>
</svg>
