<svg width="50" height="50" viewBox="0 0 50 50" fill="none" xmlns="http://www.w3.org/2000/svg">
<circle cx="25" cy="25" r="25" fill="white"/>
<path d="M26.3092 33.4002C24.9869 33.6067 23.6345 33.4981 22.3621 33.0832C21.0897 32.6683 19.9333 31.9588 18.9869 31.0124C18.0406 30.0661 17.3311 28.9096 16.9162 27.6372C16.5012 26.3648 16.3926 25.0125 16.5992 23.6902C16.0779 22.6987 15.8874 21.5664 16.0556 20.459C16.2237 19.3515 16.7417 18.3268 17.5338 17.5348C18.3259 16.7427 19.3505 16.2247 20.458 16.0566C21.5655 15.8884 22.6977 16.0789 23.6892 16.6002C25.0115 16.3936 26.3639 16.5022 27.6363 16.9171C28.9086 17.3321 30.0651 18.0416 31.0114 18.9879C31.9578 19.9343 32.6673 21.0907 33.0822 22.3631C33.4971 23.6355 33.6057 24.9879 33.3992 26.3102C33.9204 27.3016 34.1109 28.4339 33.9428 29.5413C33.7746 30.6488 33.2566 31.6735 32.4646 32.4655C31.6725 33.2576 30.6478 33.7756 29.5404 33.9437C28.4329 34.1119 27.3007 33.9214 26.3092 33.4002ZM25.0512 30.1562H25.0112C27.8832 30.1562 29.3142 28.7702 29.3142 26.9132C29.3142 25.7152 28.7632 24.4422 26.5882 23.9552L24.6052 23.5152C23.8502 23.3432 22.9832 23.1152 22.9832 22.4002C22.9832 21.6852 23.6032 21.1872 24.7072 21.1872C26.9372 21.1872 26.7342 22.7152 27.8382 22.7152C28.4142 22.7152 28.9312 22.3732 28.9312 21.7852C28.9312 20.4152 26.7342 19.3852 24.8752 19.3852C22.8542 19.3852 20.7022 20.2442 20.7022 22.5292C20.7022 23.6272 21.0962 24.7992 23.2622 25.3422L25.9512 26.0132C26.7672 26.2152 26.9692 26.6722 26.9692 27.0852C26.9692 27.7722 26.2852 28.4432 25.0512 28.4432C22.6342 28.4432 22.9732 26.5862 21.6772 26.5862C21.0972 26.5862 20.6742 26.9842 20.6742 27.5572C20.6742 28.6712 22.0262 30.1552 25.0512 30.1552V30.1562Z" fill="#373737"/>
</svg>
