<svg width="50" height="50" viewBox="0 0 50 50" fill="none" xmlns="http://www.w3.org/2000/svg">
<circle cx="25" cy="25" r="25" fill="white"/>
<g clip-path="url(#clip0_6231_4910)">
<path d="M35.1623 18.6559C34.3989 18.9936 33.5893 19.2154 32.7603 19.3139C33.634 18.7914 34.288 17.9689 34.6003 16.9999C33.7803 17.4879 32.8813 17.8299 31.9443 18.0149C31.3149 17.3415 30.4807 16.8949 29.5713 16.7445C28.6618 16.5941 27.7282 16.7484 26.9156 17.1834C26.1029 17.6183 25.4567 18.3096 25.0774 19.1497C24.6981 19.9898 24.607 20.9317 24.8183 21.8289C23.1554 21.7456 21.5286 21.3134 20.0436 20.5606C18.5585 19.8077 17.2484 18.751 16.1983 17.4589C15.8266 18.0974 15.6313 18.8232 15.6323 19.5619C15.6323 21.0119 16.3703 22.2929 17.4923 23.0429C16.8283 23.022 16.1789 22.8427 15.5983 22.5199V22.5719C15.5985 23.5376 15.9327 24.4735 16.5441 25.221C17.1556 25.9684 18.0068 26.4814 18.9533 26.6729C18.3369 26.84 17.6906 26.8646 17.0633 26.7449C17.3302 27.5762 17.8503 28.3031 18.5509 28.824C19.2515 29.3449 20.0974 29.6337 20.9703 29.6499C20.1028 30.3313 19.1095 30.8349 18.0472 31.1321C16.9849 31.4293 15.8744 31.5142 14.7793 31.3819C16.691 32.6114 18.9164 33.264 21.1893 33.2619C28.8823 33.2619 33.0893 26.8889 33.0893 21.3619C33.0893 21.1819 33.0843 20.9999 33.0763 20.8219C33.8952 20.2301 34.6019 19.4969 35.1633 18.6569L35.1623 18.6559Z" fill="#373737"/>
</g>
<defs>
<clipPath id="clip0_6231_4910">
<rect width="24" height="24" fill="white" transform="translate(13 13)"/>
</clipPath>
</defs>
</svg>
