<svg width="14" height="14" viewBox="0 0 14 14" fill="none" xmlns="http://www.w3.org/2000/svg">
<path fill-rule="evenodd" clip-rule="evenodd" d="M4.08288 6.41641C4.08288 6.09441 4.34422 5.83307 4.66622 5.83307C4.98822 5.83307 5.24955 6.09441 5.24955 6.41641C5.24955 6.73841 4.98822 6.99974 4.66622 6.99974C4.34422 6.99974 4.08288 6.73841 4.08288 6.41641ZM6.99955 5.83307C6.67755 5.83307 6.41622 6.09441 6.41622 6.41641C6.41622 6.73841 6.67755 6.99974 6.99955 6.99974C7.32155 6.99974 7.58288 6.73841 7.58288 6.41641C7.58288 6.09441 7.32155 5.83307 6.99955 5.83307ZM9.33288 5.83307C9.01088 5.83307 8.74955 6.09441 8.74955 6.41641C8.74955 6.73841 9.01088 6.99974 9.33288 6.99974C9.65488 6.99974 9.91621 6.73841 9.91621 6.41641C9.91621 6.09441 9.65488 5.83307 9.33288 5.83307ZM11.6069 7.17176C11.3112 9.06992 9.78108 10.6443 7.88583 10.9996C6.97058 11.1723 6.03842 11.0737 5.19258 10.7155C4.95283 10.614 4.70492 10.5627 4.46167 10.5627C4.35083 10.5627 4.24117 10.5732 4.13325 10.5948L2.49292 10.9226L2.82133 9.27934C2.89017 8.93809 2.84817 8.57292 2.70058 8.22351C2.34242 7.37767 2.24442 6.44609 2.4165 5.53026C2.77175 3.63501 4.34558 2.10492 6.24433 1.80917C7.75517 1.57409 9.23275 2.05009 10.2991 3.11642C11.366 4.18334 11.8426 5.66151 11.6069 7.17176ZM11.1244 2.2916C9.79153 0.959263 7.9482 0.364846 6.06462 0.655929C3.68637 1.02693 1.7147 2.9426 1.26962 5.31501C1.05495 6.45718 1.17862 7.62035 1.62603 8.67793C1.68262 8.81268 1.70012 8.9381 1.67795 9.05068L1.17745 11.552C1.13895 11.7433 1.19903 11.9411 1.33728 12.0788C1.44753 12.1896 1.59628 12.2497 1.7497 12.2497C1.78762 12.2497 1.82553 12.2462 1.86403 12.2386L4.36245 11.7387C4.50595 11.7113 4.64478 11.7515 4.73753 11.79C5.79628 12.2374 6.95945 12.3605 8.10045 12.1464C10.4734 11.7013 12.3891 9.72968 12.7601 7.35143C13.0529 5.46901 12.4574 3.62451 11.1244 2.2916Z" fill="#373737"/>
<mask id="mask0_6231_4655" style="mask-type:luminance" maskUnits="userSpaceOnUse" x="1" y="0" width="12" height="13">
<path fill-rule="evenodd" clip-rule="evenodd" d="M4.08288 6.41641C4.08288 6.09441 4.34422 5.83307 4.66622 5.83307C4.98822 5.83307 5.24955 6.09441 5.24955 6.41641C5.24955 6.73841 4.98822 6.99974 4.66622 6.99974C4.34422 6.99974 4.08288 6.73841 4.08288 6.41641ZM6.99955 5.83307C6.67755 5.83307 6.41622 6.09441 6.41622 6.41641C6.41622 6.73841 6.67755 6.99974 6.99955 6.99974C7.32155 6.99974 7.58288 6.73841 7.58288 6.41641C7.58288 6.09441 7.32155 5.83307 6.99955 5.83307ZM9.33288 5.83307C9.01088 5.83307 8.74955 6.09441 8.74955 6.41641C8.74955 6.73841 9.01088 6.99974 9.33288 6.99974C9.65488 6.99974 9.91621 6.73841 9.91621 6.41641C9.91621 6.09441 9.65488 5.83307 9.33288 5.83307ZM11.6069 7.17176C11.3112 9.06992 9.78108 10.6443 7.88583 10.9996C6.97058 11.1723 6.03842 11.0737 5.19258 10.7155C4.95283 10.614 4.70492 10.5627 4.46167 10.5627C4.35083 10.5627 4.24117 10.5732 4.13325 10.5948L2.49292 10.9226L2.82133 9.27934C2.89017 8.93809 2.84817 8.57292 2.70058 8.22351C2.34242 7.37767 2.24442 6.44609 2.4165 5.53026C2.77175 3.63501 4.34558 2.10492 6.24433 1.80917C7.75517 1.57409 9.23275 2.05009 10.2991 3.11642C11.366 4.18334 11.8426 5.66151 11.6069 7.17176ZM11.1244 2.2916C9.79153 0.959263 7.9482 0.364846 6.06462 0.655929C3.68637 1.02693 1.7147 2.9426 1.26962 5.31501C1.05495 6.45718 1.17862 7.62035 1.62603 8.67793C1.68262 8.81268 1.70012 8.9381 1.67795 9.05068L1.17745 11.552C1.13895 11.7433 1.19903 11.9411 1.33728 12.0788C1.44753 12.1896 1.59628 12.2497 1.7497 12.2497C1.78762 12.2497 1.82553 12.2462 1.86403 12.2386L4.36245 11.7387C4.50595 11.7113 4.64478 11.7515 4.73753 11.79C5.79628 12.2374 6.95945 12.3605 8.10045 12.1464C10.4734 11.7013 12.3891 9.72968 12.7601 7.35143C13.0529 5.46901 12.4574 3.62451 11.1244 2.2916Z" fill="white"/>
</mask>
<g mask="url(#mask0_6231_4655)">
<rect width="14" height="14" fill="#373737"/>
</g>
</svg>
