<svg width="14" height="14" viewBox="0 0 14 14" fill="none" xmlns="http://www.w3.org/2000/svg">
<path fill-rule="evenodd" clip-rule="evenodd" d="M8.16602 4.08333C8.16602 3.43992 7.64277 2.91667 6.99935 2.91667C6.35593 2.91667 5.83268 3.43992 5.83268 4.08333C5.83268 4.72675 6.35593 5.25 6.99935 5.25C7.64277 5.25 8.16602 4.72675 8.16602 4.08333ZM9.33268 4.08333C9.33268 5.37017 8.28618 6.41667 6.99935 6.41667C5.71252 6.41667 4.66602 5.37017 4.66602 4.08333C4.66602 2.7965 5.71252 1.75 6.99935 1.75C8.28618 1.75 9.33268 2.7965 9.33268 4.08333ZM2.91602 11.6667C2.91602 9.415 4.74827 7.58333 6.99935 7.58333C9.25043 7.58333 11.0827 9.415 11.0827 11.6667C11.0827 11.9887 10.8219 12.25 10.4994 12.25C10.1768 12.25 9.91602 11.9887 9.91602 11.6667C9.91602 10.0584 8.6076 8.75 6.99935 8.75C5.3911 8.75 4.08268 10.0584 4.08268 11.6667C4.08268 11.9887 3.82193 12.25 3.49935 12.25C3.17677 12.25 2.91602 11.9887 2.91602 11.6667Z" fill="#373737"/>
<mask id="mask0_6231_4634" style="mask-type:luminance" maskUnits="userSpaceOnUse" x="2" y="1" width="10" height="12">
<path fill-rule="evenodd" clip-rule="evenodd" d="M8.16602 4.08333C8.16602 3.43992 7.64277 2.91667 6.99935 2.91667C6.35593 2.91667 5.83268 3.43992 5.83268 4.08333C5.83268 4.72675 6.35593 5.25 6.99935 5.25C7.64277 5.25 8.16602 4.72675 8.16602 4.08333ZM9.33268 4.08333C9.33268 5.37017 8.28618 6.41667 6.99935 6.41667C5.71252 6.41667 4.66602 5.37017 4.66602 4.08333C4.66602 2.7965 5.71252 1.75 6.99935 1.75C8.28618 1.75 9.33268 2.7965 9.33268 4.08333ZM2.91602 11.6667C2.91602 9.415 4.74827 7.58333 6.99935 7.58333C9.25043 7.58333 11.0827 9.415 11.0827 11.6667C11.0827 11.9887 10.8219 12.25 10.4994 12.25C10.1768 12.25 9.91602 11.9887 9.91602 11.6667C9.91602 10.0584 8.6076 8.75 6.99935 8.75C5.3911 8.75 4.08268 10.0584 4.08268 11.6667C4.08268 11.9887 3.82193 12.25 3.49935 12.25C3.17677 12.25 2.91602 11.9887 2.91602 11.6667Z" fill="white"/>
</mask>
<g mask="url(#mask0_6231_4634)">
<rect width="14" height="14" fill="#373737"/>
</g>
</svg>
